<svg width="429.00000000000006" height="97.03748768374506" xmlns="http://www.w3.org/2000/svg" viewBox="0 0 369.66666666666663 83.6166074912768" class="looka-1j8o68f"><defs id="SvgjsDefs1011"></defs><g id="SvgjsG1012" featurekey="odWo6G-0" transform="matrix(0.2910276722837991,0,0,0.2910276722837991,-1.9020289907897838,-1.829117479810488)" fill="#f1bbd5"><g xmlns="http://www.w3.org/2000/svg"><g><defs><rect id="b" x="7" y="6.5" width="286" height="287.1"></rect></defs><clipPath id="a"><use xmlns:xlink="http://www.w3.org/1999/xlink" xlink:href="#b" style="" overflow="visible"></use></clipPath><g style="clip-path:url(#a);"><path d="M150,198.8c26.1,0,47.2,21.2,47.2,47.4s-21.1,47.4-47.2,47.4s-47.2-21.2-47.2-47.4S123.9,198.8,150,198.8z"></path><path d="M198.7,152.9c-0.1-1.1-0.1-2.2-0.1-3.3c0.1-12.4-4.5-24.4-13.3-33.2l-2-2c-8.7-8.7-20.5-13.4-32.8-13.3     c-0.2,0-0.5,0-0.7,0s-0.5,0-0.7,0c-12.3-0.2-24.1,4.6-32.8,13.3l-2,2c-8.8,8.8-13.3,20.8-13.3,33.2c0,1.1,0,2.2-0.1,3.3     c-1.3,23.3-19.8,42.4-43.1,44.3c-29.3,2.5-53.5-21.9-51.1-51.3c1.9-23.3,21-41.8,44.1-43.2c1-0.1,2.2-0.1,3.2-0.1     c12.4,0.1,24.3-4.5,33.1-13.3l2-2c8.8-8.8,13.3-20.8,13.3-33.2c0-1.6,0.1-3.3,0.2-4.9c2.1-22.9,20.8-41.1,43.7-42.8     C174,4.5,197,26.4,197,53.6c0,0.2,0,0.5,0,0.7c-0.2,12.3,4.6,24.2,13.3,32.9l2,2c8.8,8.8,20.7,13.4,33.1,13.3c1,0,2.1,0,3.2,0.1     c23.3,1.3,42.2,19.9,44.1,43.2c2.5,29.4-21.8,53.7-51.1,51.3C218.5,195.3,200.1,176.1,198.7,152.9z"></path></g></g></g></g><g id="SvgjsG1013" featurekey="VGK2BT-0" transform="matrix(4.11872587445093,0,0,4.11872587445093,99.50958371989006,-12.528008232298312)" fill="#ffffff"><path d="M9.3388 6.441000000000001 c0.16966 0 0.28847 0.11864 0.28847 0.27119 l0 1.3051 c0 0.16949 -0.10169 0.27119 -0.28831 0.27119 l-6.5763 0 l0 4.1356 l3.7458 0 c0.16949 0 0.28814 0.11864 0.28814 0.28814 l0 1.2712 c0 0.18644 -0.11864 0.28814 -0.28814 0.28814 l-3.7458 0 l0 5.4407 c0 0.18644 -0.10169 0.28797 -0.25424 0.28797 l-1.0169 0 c-0.40678 0 -0.64407 -0.28797 -0.64407 -0.6778 l0 -12.61 c0 -0.15254 0.10169 -0.27119 0.27119 -0.27119 l8.2202 0 z M12.118454237288134 8.492 c-0.55915 0 -1.0168 -0.44068 -1.0168 -1.0169 c0 -0.55932 0.45763 -1.0169 1.0168 -1.0169 c0.55932 0 1.0169 0.45763 1.0169 1.0169 c0 0.57627 -0.45763 1.0169 -1.0169 1.0169 z M12.779454237288135 11.6102 l-1.3051 0 c-0.16949 0 -0.27119 0.11881 -0.27119 0.27119 l0 7.4407 c0 0.38983 0.23729 0.6778 0.64407 0.6778 l0.94915 0 c0.15254 0 0.25424 -0.10153 0.25424 -0.28797 l0 -7.8305 c0 -0.15238 -0.11864 -0.27119 -0.27119 -0.27119 z M17.169533898305083 6.441000000000001 l-1.3053 0 c-0.16933 0 -0.27119 0.11864 -0.27119 0.27119 l0 12.61 c0 0.38983 0.23746 0.6778 0.66119 0.6778 l0.91525 0 c0.16949 0 0.27119 -0.10153 0.27119 -0.28797 l0 -13 c0 -0.15254 -0.11864 -0.27119 -0.27119 -0.27119 z M26.508467796610166 16.4915 c0.61 0 1.0336 -0.30508 1.0336 -1.0169 c0 -2.0847 -1.6102 -3.9831 -4.0847 -3.9831 c-2.3559 0 -4.2034 1.8644 -4.2034 4.3051 c0 2.5422 1.9322 4.288 4.3051 4.288 c1.5085 0 2.6949 -0.61017 3.4237 -1.5932 c0.10186 -0.13559 0.067963 -0.23729 -0.033568 -0.37288 l-0.32203 -0.42373 c-0.13559 -0.16933 -0.27119 -0.15254 -0.44085 -0.050847 c-0.5422 0.44068 -1.4405 0.81373 -2.4236 0.81373 c-1.3898 0 -2.3729 -0.84746 -2.5593 -1.9661 l5.3051 0 z M21.203267796610167 15.050799999999999 c0.067797 -0.81356 0.83051 -1.8644 2.2203 -1.8644 c1.4068 0 2.1356 1.0678 2.1864 1.8644 l-4.4068 0 z M37.50829152542372 6.441000000000001 c0.16966 0 0.28847 0.11864 0.28847 0.27119 l0 1.3051 c0 0.16949 -0.10169 0.27119 -0.28831 0.27119 l-6.5763 0 l0 4.1356 l3.7458 0 c0.16949 0 0.28814 0.11864 0.28814 0.28814 l0 1.2712 c0 0.18644 -0.11864 0.28814 -0.28814 0.28814 l-3.7458 0 l0 5.4407 c0 0.18644 -0.10169 0.28797 -0.25424 0.28797 l-1.0169 0 c-0.40678 0 -0.64407 -0.28797 -0.64407 -0.6778 l0 -12.61 c0 -0.15254 0.10169 -0.27119 0.27119 -0.27119 l8.2202 0 z M41.084788135593215 6.441000000000001 l-1.3053 0 c-0.16933 0 -0.27119 0.11864 -0.27119 0.27119 l0 12.61 c0 0.38983 0.23746 0.6778 0.66119 0.6778 l0.91525 0 c0.16949 0 0.27119 -0.10153 0.27119 -0.28797 l0 -13 c0 -0.15254 -0.11864 -0.27119 -0.27119 -0.27119 z M47.5761220338983 20.11864 c2.3729 0 4.339 -1.8812 4.339 -4.3049 c0 -2.4746 -1.9661 -4.322 -4.339 -4.322 s-4.339 1.8475 -4.339 4.322 c0 2.4237 1.9661 4.3049 4.339 4.3049 z M47.5761220338983 18.39 c-1.4576 0 -2.5424 -1.2034 -2.5424 -2.5593 c0 -1.4068 1.0847 -2.6102 2.5424 -2.6102 s2.5424 1.2034 2.5424 2.6102 c0 1.3559 -1.0847 2.5593 -2.5424 2.5593 z M65.35623728813559 11.6102 c0.20339 0 0.28831 0.11881 0.20356 0.30525 l-3.1695 7.8983 c-0.033898 0.10169 -0.15254 0.18627 -0.27119 0.18627 l-0.20339 0 c-0.13559 0 -0.23729 -0.08458 -0.30508 -0.18627 l-2.4746 -5.1186 l-2.4746 5.1186 c-0.050847 0.10169 -0.16949 0.18627 -0.28814 0.18627 l-0.22034 0 c-0.11864 0 -0.22034 -0.08458 -0.27119 -0.18627 l-3.1695 -7.8983 c-0.067797 -0.18644 0.016784 -0.30525 0.20339 -0.30525 l1.4066 0 c0.13559 0 0.25441 0.084746 0.30525 0.18661 l1.8981 5.1695 l2.1525 -5.0847 c0.050847 -0.11864 0.15271 -0.18644 0.3222 -0.18644 l0.28814 0 c0.16949 0 0.25424 0.067797 0.30508 0.18644 l2.1695 5.0847 l1.8814 -5.1695 c0.050847 -0.10186 0.15238 -0.18661 0.30492 -0.18661 l1.4068 0 z"></path></g></svg>